<?xml version="1.0" encoding="UTF-8" standalone="no"?>
<!DOCTYPE svg PUBLIC "-//W3C//DTD SVG 1.1//EN"
 "http://www.w3.org/Graphics/SVG/1.1/DTD/svg11.dtd">
<!-- Generated by graphviz version 14.0.5 (20251129.0259)
 -->
<!-- Title: Tree Pages: 1 -->
<svg width="707pt" height="409pt"
 viewBox="0.00 0.00 707.00 409.00" xmlns="http://www.w3.org/2000/svg" xmlns:xlink="http://www.w3.org/1999/xlink">
<g id="graph0" class="graph" transform="scale(1 1) rotate(0) translate(4 405)">
<title>Tree</title>
<polygon fill="white" stroke="none" points="-4,4 -4,-405 702.75,-405 702.75,4 -4,4"/>
<!-- 0 -->
<g id="node1" class="node">
<title>0</title>
<polygon fill="#fefcfa" stroke="black" points="447.25,-401 259.5,-401 259.5,-345.75 447.25,-345.75 447.25,-401"/>
<text xml:space="preserve" text-anchor="middle" x="353.38" y="-383.7" font-family="Helvetica,sans-Serif" font-size="14.00">flavanoids &lt;= 0.342</text>
<text xml:space="preserve" text-anchor="middle" x="353.38" y="-367.95" font-family="Helvetica,sans-Serif" font-size="14.00">samples = 100.0%</text>
<text xml:space="preserve" text-anchor="middle" x="353.38" y="-352.2" font-family="Helvetica,sans-Serif" font-size="14.00">value = [0.361, 0.346, 0.293]</text>
</g>
<!-- 1 -->
<g id="node2" class="node">
<title>1</title>
<polygon fill="#fcfafe" stroke="black" points="340.75,-309.75 168,-309.75 168,-254.5 340.75,-254.5 340.75,-309.75"/>
<text xml:space="preserve" text-anchor="middle" x="254.38" y="-292.45" font-family="Helvetica,sans-Serif" font-size="14.00">color_intensity &lt;= &#45;0.592</text>
<text xml:space="preserve" text-anchor="middle" x="254.38" y="-276.7" font-family="Helvetica,sans-Serif" font-size="14.00">samples = 58.6%</text>
<text xml:space="preserve" text-anchor="middle" x="254.38" y="-260.95" font-family="Helvetica,sans-Serif" font-size="14.00">value = [0.013, 0.487, 0.5]</text>
</g>
<!-- 0&#45;&gt;1 -->
<g id="edge1" class="edge">
<title>0&#45;&gt;1</title>
<path fill="none" stroke="black" d="M323.4,-345.35C313.71,-336.62 302.83,-326.81 292.62,-317.6"/>
<polygon fill="black" stroke="black" points="295.14,-315.16 285.37,-311.07 290.45,-320.36 295.14,-315.16"/>
<text xml:space="preserve" text-anchor="middle" x="285.54" y="-329.59" font-family="Helvetica,sans-Serif" font-size="14.00">True</text>
</g>
<!-- 10 -->
<g id="node9" class="node">
<title>10</title>
<polygon fill="#e9965b" stroke="black" points="538.75,-309.75 366,-309.75 366,-254.5 538.75,-254.5 538.75,-309.75"/>
<text xml:space="preserve" text-anchor="middle" x="452.38" y="-292.45" font-family="Helvetica,sans-Serif" font-size="14.00">proline &lt;= &#45;0.113</text>
<text xml:space="preserve" text-anchor="middle" x="452.38" y="-276.7" font-family="Helvetica,sans-Serif" font-size="14.00">samples = 41.4%</text>
<text xml:space="preserve" text-anchor="middle" x="452.38" y="-260.95" font-family="Helvetica,sans-Serif" font-size="14.00">value = [0.855, 0.145, 0.0]</text>
</g>
<!-- 0&#45;&gt;10 -->
<g id="edge8" class="edge">
<title>0&#45;&gt;10</title>
<path fill="none" stroke="black" d="M383.35,-345.35C393.04,-336.62 403.92,-326.81 414.13,-317.6"/>
<polygon fill="black" stroke="black" points="416.3,-320.36 421.38,-311.07 411.61,-315.16 416.3,-320.36"/>
<text xml:space="preserve" text-anchor="middle" x="421.21" y="-329.59" font-family="Helvetica,sans-Serif" font-size="14.00">False</text>
</g>
<!-- 2 -->
<g id="node3" class="node">
<title>2</title>
<polygon fill="#39e581" stroke="black" points="142.75,-210.62 0,-210.62 0,-171.12 142.75,-171.12 142.75,-210.62"/>
<text xml:space="preserve" text-anchor="middle" x="71.38" y="-193.32" font-family="Helvetica,sans-Serif" font-size="14.00">samples = 25.6%</text>
<text xml:space="preserve" text-anchor="middle" x="71.38" y="-177.57" font-family="Helvetica,sans-Serif" font-size="14.00">value = [0.0, 1.0, 0.0]</text>
</g>
<!-- 1&#45;&gt;2 -->
<g id="edge2" class="edge">
<title>1&#45;&gt;2</title>
<path fill="none" stroke="black" d="M198.97,-254.1C174.14,-241.99 145.08,-227.82 120.97,-216.06"/>
<polygon fill="black" stroke="black" points="122.51,-212.92 111.98,-211.68 119.44,-219.21 122.51,-212.92"/>
</g>
<!-- 3 -->
<g id="node4" class="node">
<title>3</title>
<polygon fill="#9152e8" stroke="black" points="348.25,-218.5 160.5,-218.5 160.5,-163.25 348.25,-163.25 348.25,-218.5"/>
<text xml:space="preserve" text-anchor="middle" x="254.38" y="-201.2" font-family="Helvetica,sans-Serif" font-size="14.00">flavanoids &lt;= &#45;0.604</text>
<text xml:space="preserve" text-anchor="middle" x="254.38" y="-185.45" font-family="Helvetica,sans-Serif" font-size="14.00">samples = 33.1%</text>
<text xml:space="preserve" text-anchor="middle" x="254.38" y="-169.7" font-family="Helvetica,sans-Serif" font-size="14.00">value = [0.023, 0.091, 0.886]</text>
</g>
<!-- 1&#45;&gt;3 -->
<g id="edge3" class="edge">
<title>1&#45;&gt;3</title>
<path fill="none" stroke="black" d="M254.38,-254.35C254.38,-246.83 254.38,-238.5 254.38,-230.43"/>
<polygon fill="black" stroke="black" points="257.88,-230.46 254.38,-220.46 250.88,-230.46 257.88,-230.46"/>
</g>
<!-- 4 -->
<g id="node5" class="node">
<title>4</title>
<polygon fill="#8139e5" stroke="black" points="146.75,-119.38 4,-119.38 4,-79.88 146.75,-79.88 146.75,-119.38"/>
<text xml:space="preserve" text-anchor="middle" x="75.38" y="-102.08" font-family="Helvetica,sans-Serif" font-size="14.00">samples = 28.6%</text>
<text xml:space="preserve" text-anchor="middle" x="75.38" y="-86.33" font-family="Helvetica,sans-Serif" font-size="14.00">value = [0.0, 0.0, 1.0]</text>
</g>
<!-- 3&#45;&gt;4 -->
<g id="edge4" class="edge">
<title>3&#45;&gt;4</title>
<path fill="none" stroke="black" d="M200.18,-162.85C175.89,-150.74 147.47,-136.57 123.89,-124.81"/>
<polygon fill="black" stroke="black" points="125.63,-121.77 115.12,-120.44 122.51,-128.04 125.63,-121.77"/>
</g>
<!-- 5 -->
<g id="node6" class="node">
<title>5</title>
<polygon fill="#88efb3" stroke="black" points="352.25,-127.25 164.5,-127.25 164.5,-72 352.25,-72 352.25,-127.25"/>
<text xml:space="preserve" text-anchor="middle" x="258.38" y="-109.95" font-family="Helvetica,sans-Serif" font-size="14.00">alcohol &lt;= 0.122</text>
<text xml:space="preserve" text-anchor="middle" x="258.38" y="-94.2" font-family="Helvetica,sans-Serif" font-size="14.00">samples = 4.5%</text>
<text xml:space="preserve" text-anchor="middle" x="258.38" y="-78.45" font-family="Helvetica,sans-Serif" font-size="14.00">value = [0.167, 0.667, 0.167]</text>
</g>
<!-- 3&#45;&gt;5 -->
<g id="edge5" class="edge">
<title>3&#45;&gt;5</title>
<path fill="none" stroke="black" d="M255.58,-163.1C255.91,-155.58 256.29,-147.25 256.65,-139.18"/>
<polygon fill="black" stroke="black" points="260.14,-139.35 257.09,-129.2 253.15,-139.04 260.14,-139.35"/>
</g>
<!-- 6 -->
<g id="node7" class="node">
<title>6</title>
<polygon fill="#c0c0c0" stroke="black" points="249.38,-36 195.38,-36 195.38,0 249.38,0 249.38,-36"/>
<text xml:space="preserve" text-anchor="middle" x="222.38" y="-12.57" font-family="Helvetica,sans-Serif" font-size="14.00">(...)</text>
</g>
<!-- 5&#45;&gt;6 -->
<g id="edge6" class="edge">
<title>5&#45;&gt;6</title>
<path fill="none" stroke="black" d="M246.19,-71.67C242.54,-63.6 238.54,-54.75 234.87,-46.64"/>
<polygon fill="black" stroke="black" points="238.08,-45.24 230.77,-37.57 231.7,-48.12 238.08,-45.24"/>
</g>
<!-- 7 -->
<g id="node8" class="node">
<title>7</title>
<polygon fill="#c0c0c0" stroke="black" points="321.38,-36 267.38,-36 267.38,0 321.38,0 321.38,-36"/>
<text xml:space="preserve" text-anchor="middle" x="294.38" y="-12.57" font-family="Helvetica,sans-Serif" font-size="14.00">(...)</text>
</g>
<!-- 5&#45;&gt;7 -->
<g id="edge7" class="edge">
<title>5&#45;&gt;7</title>
<path fill="none" stroke="black" d="M270.56,-71.67C274.21,-63.6 278.21,-54.75 281.88,-46.64"/>
<polygon fill="black" stroke="black" points="285.05,-48.12 285.98,-37.57 278.67,-45.24 285.05,-48.12"/>
</g>
<!-- 11 -->
<g id="node10" class="node">
<title>11</title>
<polygon fill="#52e891" stroke="black" points="538,-218.5 366.75,-218.5 366.75,-163.25 538,-163.25 538,-218.5"/>
<text xml:space="preserve" text-anchor="middle" x="452.38" y="-201.2" font-family="Helvetica,sans-Serif" font-size="14.00">magnesium &lt;= 0.062</text>
<text xml:space="preserve" text-anchor="middle" x="452.38" y="-185.45" font-family="Helvetica,sans-Serif" font-size="14.00">samples = 6.8%</text>
<text xml:space="preserve" text-anchor="middle" x="452.38" y="-169.7" font-family="Helvetica,sans-Serif" font-size="14.00">value = [0.111, 0.889, 0.0]</text>
</g>
<!-- 10&#45;&gt;11 -->
<g id="edge9" class="edge">
<title>10&#45;&gt;11</title>
<path fill="none" stroke="black" d="M452.38,-254.35C452.38,-246.83 452.38,-238.5 452.38,-230.43"/>
<polygon fill="black" stroke="black" points="455.88,-230.46 452.38,-220.46 448.88,-230.46 455.88,-230.46"/>
</g>
<!-- 14 -->
<g id="node13" class="node">
<title>14</title>
<polygon fill="#e58139" stroke="black" points="698.75,-210.62 556,-210.62 556,-171.12 698.75,-171.12 698.75,-210.62"/>
<text xml:space="preserve" text-anchor="middle" x="627.38" y="-193.32" font-family="Helvetica,sans-Serif" font-size="14.00">samples = 34.6%</text>
<text xml:space="preserve" text-anchor="middle" x="627.38" y="-177.57" font-family="Helvetica,sans-Serif" font-size="14.00">value = [1.0, 0.0, 0.0]</text>
</g>
<!-- 10&#45;&gt;14 -->
<g id="edge12" class="edge">
<title>10&#45;&gt;14</title>
<path fill="none" stroke="black" d="M505.36,-254.1C529,-242.05 556.64,-227.95 579.64,-216.22"/>
<polygon fill="black" stroke="black" points="581.18,-219.37 588.49,-211.7 578,-213.13 581.18,-219.37"/>
</g>
<!-- 12 -->
<g id="node11" class="node">
<title>12</title>
<polygon fill="#39e581" stroke="black" points="519.75,-119.38 377,-119.38 377,-79.88 519.75,-79.88 519.75,-119.38"/>
<text xml:space="preserve" text-anchor="middle" x="448.38" y="-102.08" font-family="Helvetica,sans-Serif" font-size="14.00">samples = 6.0%</text>
<text xml:space="preserve" text-anchor="middle" x="448.38" y="-86.33" font-family="Helvetica,sans-Serif" font-size="14.00">value = [0.0, 1.0, 0.0]</text>
</g>
<!-- 11&#45;&gt;12 -->
<g id="edge10" class="edge">
<title>11&#45;&gt;12</title>
<path fill="none" stroke="black" d="M451.17,-163.1C450.72,-153.06 450.21,-141.58 449.75,-131.22"/>
<polygon fill="black" stroke="black" points="453.24,-131.08 449.3,-121.24 446.25,-131.39 453.24,-131.08"/>
</g>
<!-- 13 -->
<g id="node12" class="node">
<title>13</title>
<polygon fill="#e58139" stroke="black" points="680.75,-119.38 538,-119.38 538,-79.88 680.75,-79.88 680.75,-119.38"/>
<text xml:space="preserve" text-anchor="middle" x="609.38" y="-102.08" font-family="Helvetica,sans-Serif" font-size="14.00">samples = 0.8%</text>
<text xml:space="preserve" text-anchor="middle" x="609.38" y="-86.33" font-family="Helvetica,sans-Serif" font-size="14.00">value = [1.0, 0.0, 0.0]</text>
</g>
<!-- 11&#45;&gt;13 -->
<g id="edge11" class="edge">
<title>11&#45;&gt;13</title>
<path fill="none" stroke="black" d="M499.91,-162.85C521,-150.86 545.65,-136.85 566.22,-125.16"/>
<polygon fill="black" stroke="black" points="567.67,-128.36 574.63,-120.38 564.21,-122.28 567.67,-128.36"/>
</g>
</g>
</svg>
