<?xml version="1.0" encoding="UTF-8" standalone="no"?>
<!DOCTYPE svg PUBLIC "-//W3C//DTD SVG 1.1//EN"
 "http://www.w3.org/Graphics/SVG/1.1/DTD/svg11.dtd">
<!-- Generated by graphviz version 6.0.2 (20221011.1828)
 -->
<!-- Title: Tree Pages: 1 -->
<svg width="603pt" height="311pt"
 viewBox="0.00 0.00 603.00 311.00" xmlns="http://www.w3.org/2000/svg" xmlns:xlink="http://www.w3.org/1999/xlink">
<g id="graph0" class="graph" transform="scale(1 1) rotate(0) translate(4 307)">
<title>Tree</title>
<polygon fill="white" stroke="none" points="-4,4 -4,-307 599,-307 599,4 -4,4"/>
<!-- 0 -->
<g id="node1" class="node">
<title>0</title>
<polygon fill="#f2bf9b" stroke="black" points="351,-303 215,-303 215,-250 351,-250 351,-303"/>
<text text-anchor="middle" x="283" y="-287.8" font-family="Helvetica,sans-Serif" font-size="14.00">temp &lt;= 0.432</text>
<text text-anchor="middle" x="283" y="-272.8" font-family="Helvetica,sans-Serif" font-size="14.00">samples = 100.0%</text>
<text text-anchor="middle" x="283" y="-257.8" font-family="Helvetica,sans-Serif" font-size="14.00">value = 4445.482</text>
</g>
<!-- 1 -->
<g id="node2" class="node">
<title>1</title>
<polygon fill="#f7d8c1" stroke="black" points="274,-214 146,-214 146,-161 274,-161 274,-214"/>
<text text-anchor="middle" x="210" y="-198.8" font-family="Helvetica,sans-Serif" font-size="14.00">yr &lt;= 0.5</text>
<text text-anchor="middle" x="210" y="-183.8" font-family="Helvetica,sans-Serif" font-size="14.00">samples = 41.8%</text>
<text text-anchor="middle" x="210" y="-168.8" font-family="Helvetica,sans-Serif" font-size="14.00">value = 2906.106</text>
</g>
<!-- 0&#45;&gt;1 -->
<g id="edge1" class="edge">
<title>0&#45;&gt;1</title>
<path fill="none" stroke="black" d="M261.49,-249.87C254.21,-241.18 245.95,-231.35 238.23,-222.14"/>
<polygon fill="black" stroke="black" points="240.72,-219.66 231.61,-214.25 235.35,-224.16 240.72,-219.66"/>
<text text-anchor="middle" x="229.43" y="-235.45" font-family="Helvetica,sans-Serif" font-size="14.00">True</text>
</g>
<!-- 294 -->
<g id="node9" class="node">
<title>294</title>
<polygon fill="#eead7e" stroke="black" points="420,-214 292,-214 292,-161 420,-161 420,-214"/>
<text text-anchor="middle" x="356" y="-198.8" font-family="Helvetica,sans-Serif" font-size="14.00">weathersit &lt;= 2.5</text>
<text text-anchor="middle" x="356" y="-183.8" font-family="Helvetica,sans-Serif" font-size="14.00">samples = 58.2%</text>
<text text-anchor="middle" x="356" y="-168.8" font-family="Helvetica,sans-Serif" font-size="14.00">value = 5609.881</text>
</g>
<!-- 0&#45;&gt;294 -->
<g id="edge8" class="edge">
<title>0&#45;&gt;294</title>
<path fill="none" stroke="black" d="M304.51,-249.87C311.79,-241.18 320.05,-231.35 327.77,-222.14"/>
<polygon fill="black" stroke="black" points="330.65,-224.16 334.39,-214.25 325.28,-219.66 330.65,-224.16"/>
<text text-anchor="middle" x="336.57" y="-235.45" font-family="Helvetica,sans-Serif" font-size="14.00">False</text>
</g>
<!-- 2 -->
<g id="node3" class="node">
<title>2</title>
<polygon fill="#f9e3d2" stroke="black" points="128,-125 0,-125 0,-72 128,-72 128,-125"/>
<text text-anchor="middle" x="64" y="-109.8" font-family="Helvetica,sans-Serif" font-size="14.00">mnth &lt;= 7.0</text>
<text text-anchor="middle" x="64" y="-94.8" font-family="Helvetica,sans-Serif" font-size="14.00">samples = 23.6%</text>
<text text-anchor="middle" x="64" y="-79.8" font-family="Helvetica,sans-Serif" font-size="14.00">value = 2231.727</text>
</g>
<!-- 1&#45;&gt;2 -->
<g id="edge2" class="edge">
<title>1&#45;&gt;2</title>
<path fill="none" stroke="black" d="M166.98,-160.87C150.87,-151.26 132.39,-140.25 115.58,-130.24"/>
<polygon fill="black" stroke="black" points="117.34,-127.21 106.96,-125.1 113.76,-133.23 117.34,-127.21"/>
</g>
<!-- 167 -->
<g id="node6" class="node">
<title>167</title>
<polygon fill="#f4c7a8" stroke="black" points="274,-125 146,-125 146,-72 274,-72 274,-125"/>
<text text-anchor="middle" x="210" y="-109.8" font-family="Helvetica,sans-Serif" font-size="14.00">season &lt;= 1.5</text>
<text text-anchor="middle" x="210" y="-94.8" font-family="Helvetica,sans-Serif" font-size="14.00">samples = 18.2%</text>
<text text-anchor="middle" x="210" y="-79.8" font-family="Helvetica,sans-Serif" font-size="14.00">value = 3943.054</text>
</g>
<!-- 1&#45;&gt;167 -->
<g id="edge5" class="edge">
<title>1&#45;&gt;167</title>
<path fill="none" stroke="black" d="M210,-160.87C210,-152.89 210,-143.93 210,-135.38"/>
<polygon fill="black" stroke="black" points="213.5,-135.25 210,-125.25 206.5,-135.25 213.5,-135.25"/>
</g>
<!-- 3 -->
<g id="node4" class="node">
<title>3</title>
<polygon fill="#c0c0c0" stroke="black" points="58,-36 4,-36 4,0 58,0 58,-36"/>
<text text-anchor="middle" x="31" y="-14.3" font-family="Helvetica,sans-Serif" font-size="14.00">(...)</text>
</g>
<!-- 2&#45;&gt;3 -->
<g id="edge3" class="edge">
<title>2&#45;&gt;3</title>
<path fill="none" stroke="black" d="M53.19,-71.8C49.68,-63.44 45.78,-54.15 42.23,-45.72"/>
<polygon fill="black" stroke="black" points="45.39,-44.19 38.29,-36.33 38.93,-46.91 45.39,-44.19"/>
</g>
<!-- 100 -->
<g id="node5" class="node">
<title>100</title>
<polygon fill="#c0c0c0" stroke="black" points="130,-36 76,-36 76,0 130,0 130,-36"/>
<text text-anchor="middle" x="103" y="-14.3" font-family="Helvetica,sans-Serif" font-size="14.00">(...)</text>
</g>
<!-- 2&#45;&gt;100 -->
<g id="edge4" class="edge">
<title>2&#45;&gt;100</title>
<path fill="none" stroke="black" d="M76.77,-71.8C80.97,-63.35 85.64,-53.95 89.86,-45.45"/>
<polygon fill="black" stroke="black" points="93.08,-46.84 94.39,-36.33 86.81,-43.73 93.08,-46.84"/>
</g>
<!-- 168 -->
<g id="node7" class="node">
<title>168</title>
<polygon fill="#c0c0c0" stroke="black" points="219,-36 165,-36 165,0 219,0 219,-36"/>
<text text-anchor="middle" x="192" y="-14.3" font-family="Helvetica,sans-Serif" font-size="14.00">(...)</text>
</g>
<!-- 167&#45;&gt;168 -->
<g id="edge6" class="edge">
<title>167&#45;&gt;168</title>
<path fill="none" stroke="black" d="M204.11,-71.8C202.23,-63.62 200.15,-54.55 198.25,-46.27"/>
<polygon fill="black" stroke="black" points="201.62,-45.3 195.97,-36.33 194.8,-46.86 201.62,-45.3"/>
</g>
<!-- 243 -->
<g id="node8" class="node">
<title>243</title>
<polygon fill="#c0c0c0" stroke="black" points="291,-36 237,-36 237,0 291,0 291,-36"/>
<text text-anchor="middle" x="264" y="-14.3" font-family="Helvetica,sans-Serif" font-size="14.00">(...)</text>
</g>
<!-- 167&#45;&gt;243 -->
<g id="edge7" class="edge">
<title>167&#45;&gt;243</title>
<path fill="none" stroke="black" d="M227.68,-71.8C233.68,-63.08 240.38,-53.34 246.37,-44.63"/>
<polygon fill="black" stroke="black" points="249.29,-46.55 252.08,-36.33 243.53,-42.59 249.29,-46.55"/>
</g>
<!-- 295 -->
<g id="node10" class="node">
<title>295</title>
<polygon fill="#eeab7c" stroke="black" points="420,-125 292,-125 292,-72 420,-72 420,-125"/>
<text text-anchor="middle" x="356" y="-109.8" font-family="Helvetica,sans-Serif" font-size="14.00">hum &lt;= 0.81</text>
<text text-anchor="middle" x="356" y="-94.8" font-family="Helvetica,sans-Serif" font-size="14.00">samples = 56.2%</text>
<text text-anchor="middle" x="356" y="-79.8" font-family="Helvetica,sans-Serif" font-size="14.00">value = 5717.443</text>
</g>
<!-- 294&#45;&gt;295 -->
<g id="edge9" class="edge">
<title>294&#45;&gt;295</title>
<path fill="none" stroke="black" d="M356,-160.87C356,-152.89 356,-143.93 356,-135.38"/>
<polygon fill="black" stroke="black" points="359.5,-135.25 356,-125.25 352.5,-135.25 359.5,-135.25"/>
</g>
<!-- 690 -->
<g id="node13" class="node">
<title>690</title>
<polygon fill="#f7d8c1" stroke="black" points="565.5,-125 438.5,-125 438.5,-72 565.5,-72 565.5,-125"/>
<text text-anchor="middle" x="502" y="-109.8" font-family="Helvetica,sans-Serif" font-size="14.00">yr &lt;= 0.5</text>
<text text-anchor="middle" x="502" y="-94.8" font-family="Helvetica,sans-Serif" font-size="14.00">samples = 2.0%</text>
<text text-anchor="middle" x="502" y="-79.8" font-family="Helvetica,sans-Serif" font-size="14.00">value = 2920.833</text>
</g>
<!-- 294&#45;&gt;690 -->
<g id="edge12" class="edge">
<title>294&#45;&gt;690</title>
<path fill="none" stroke="black" d="M399.02,-160.87C415.13,-151.26 433.61,-140.25 450.42,-130.24"/>
<polygon fill="black" stroke="black" points="452.24,-133.23 459.04,-125.1 448.66,-127.21 452.24,-133.23"/>
</g>
<!-- 296 -->
<g id="node11" class="node">
<title>296</title>
<polygon fill="#c0c0c0" stroke="black" points="373,-36 319,-36 319,0 373,0 373,-36"/>
<text text-anchor="middle" x="346" y="-14.3" font-family="Helvetica,sans-Serif" font-size="14.00">(...)</text>
</g>
<!-- 295&#45;&gt;296 -->
<g id="edge10" class="edge">
<title>295&#45;&gt;296</title>
<path fill="none" stroke="black" d="M352.73,-71.8C351.68,-63.62 350.53,-54.55 349.47,-46.27"/>
<polygon fill="black" stroke="black" points="352.94,-45.81 348.21,-36.33 346,-46.69 352.94,-45.81"/>
</g>
<!-- 657 -->
<g id="node12" class="node">
<title>657</title>
<polygon fill="#c0c0c0" stroke="black" points="445,-36 391,-36 391,0 445,0 445,-36"/>
<text text-anchor="middle" x="418" y="-14.3" font-family="Helvetica,sans-Serif" font-size="14.00">(...)</text>
</g>
<!-- 295&#45;&gt;657 -->
<g id="edge11" class="edge">
<title>295&#45;&gt;657</title>
<path fill="none" stroke="black" d="M376.3,-71.8C383.26,-62.99 391.04,-53.14 397.97,-44.36"/>
<polygon fill="black" stroke="black" points="400.86,-46.35 404.31,-36.33 395.37,-42.01 400.86,-46.35"/>
</g>
<!-- 691 -->
<g id="node14" class="node">
<title>691</title>
<polygon fill="#c0c0c0" stroke="black" points="523,-36 469,-36 469,0 523,0 523,-36"/>
<text text-anchor="middle" x="496" y="-14.3" font-family="Helvetica,sans-Serif" font-size="14.00">(...)</text>
</g>
<!-- 690&#45;&gt;691 -->
<g id="edge13" class="edge">
<title>690&#45;&gt;691</title>
<path fill="none" stroke="black" d="M500.04,-71.8C499.42,-63.71 498.73,-54.76 498.11,-46.55"/>
<polygon fill="black" stroke="black" points="501.58,-46.03 497.32,-36.33 494.6,-46.57 501.58,-46.03"/>
</g>
<!-- 700 -->
<g id="node15" class="node">
<title>700</title>
<polygon fill="#c0c0c0" stroke="black" points="595,-36 541,-36 541,0 595,0 595,-36"/>
<text text-anchor="middle" x="568" y="-14.3" font-family="Helvetica,sans-Serif" font-size="14.00">(...)</text>
</g>
<!-- 690&#45;&gt;700 -->
<g id="edge14" class="edge">
<title>690&#45;&gt;700</title>
<path fill="none" stroke="black" d="M523.61,-71.8C531.09,-62.9 539.47,-52.93 546.91,-44.08"/>
<polygon fill="black" stroke="black" points="549.67,-46.24 553.43,-36.33 544.31,-41.73 549.67,-46.24"/>
</g>
</g>
</svg>
