<?xml version="1.0" encoding="UTF-8" standalone="no"?>
<!DOCTYPE svg PUBLIC "-//W3C//DTD SVG 1.1//EN"
 "http://www.w3.org/Graphics/SVG/1.1/DTD/svg11.dtd">
<!-- Generated by graphviz version 6.0.2 (20221011.1828)
 -->
<!-- Title: Tree Pages: 1 -->
<svg width="623pt" height="311pt"
 viewBox="0.00 0.00 623.00 311.00" xmlns="http://www.w3.org/2000/svg" xmlns:xlink="http://www.w3.org/1999/xlink">
<g id="graph0" class="graph" transform="scale(1 1) rotate(0) translate(4 307)">
<title>Tree</title>
<polygon fill="white" stroke="none" points="-4,4 -4,-307 619,-307 619,4 -4,4"/>
<!-- 0 -->
<g id="node1" class="node">
<title>0</title>
<polygon fill="#f2be99" stroke="black" points="365,-303 229,-303 229,-250 365,-250 365,-303"/>
<text text-anchor="middle" x="297" y="-287.8" font-family="Helvetica,sans-Serif" font-size="14.00">weathersit &lt;= 1.5</text>
<text text-anchor="middle" x="297" y="-272.8" font-family="Helvetica,sans-Serif" font-size="14.00">samples = 100.0%</text>
<text text-anchor="middle" x="297" y="-257.8" font-family="Helvetica,sans-Serif" font-size="14.00">value = 4543.416</text>
</g>
<!-- 1 -->
<g id="node2" class="node">
<title>1</title>
<polygon fill="#f0b68c" stroke="black" points="284,-214 156,-214 156,-161 284,-161 284,-214"/>
<text text-anchor="middle" x="220" y="-198.8" font-family="Helvetica,sans-Serif" font-size="14.00">hum &lt;= 0.538</text>
<text text-anchor="middle" x="220" y="-183.8" font-family="Helvetica,sans-Serif" font-size="14.00">samples = 62.8%</text>
<text text-anchor="middle" x="220" y="-168.8" font-family="Helvetica,sans-Serif" font-size="14.00">value = 5055.15</text>
</g>
<!-- 0&#45;&gt;1 -->
<g id="edge1" class="edge">
<title>0&#45;&gt;1</title>
<path fill="none" stroke="black" d="M274.31,-249.87C266.55,-241.1 257.75,-231.15 249.53,-221.86"/>
<polygon fill="black" stroke="black" points="252.04,-219.42 242.79,-214.25 246.8,-224.06 252.04,-219.42"/>
<text text-anchor="middle" x="241.27" y="-235.5" font-family="Helvetica,sans-Serif" font-size="14.00">True</text>
</g>
<!-- 432 -->
<g id="node9" class="node">
<title>432</title>
<polygon fill="#f4cbad" stroke="black" points="439,-214 311,-214 311,-161 439,-161 439,-214"/>
<text text-anchor="middle" x="375" y="-198.8" font-family="Helvetica,sans-Serif" font-size="14.00">hum &lt;= 0.909</text>
<text text-anchor="middle" x="375" y="-183.8" font-family="Helvetica,sans-Serif" font-size="14.00">samples = 37.2%</text>
<text text-anchor="middle" x="375" y="-168.8" font-family="Helvetica,sans-Serif" font-size="14.00">value = 3713.378</text>
</g>
<!-- 0&#45;&gt;432 -->
<g id="edge8" class="edge">
<title>0&#45;&gt;432</title>
<path fill="none" stroke="black" d="M319.98,-249.87C327.84,-241.1 336.76,-231.15 345.09,-221.86"/>
<polygon fill="black" stroke="black" points="347.84,-224.03 351.91,-214.25 342.63,-219.36 347.84,-224.03"/>
<text text-anchor="middle" x="353.28" y="-235.51" font-family="Helvetica,sans-Serif" font-size="14.00">False</text>
</g>
<!-- 2 -->
<g id="node3" class="node">
<title>2</title>
<polygon fill="#f1bc95" stroke="black" points="138,-125 0,-125 0,-72 138,-72 138,-125"/>
<text text-anchor="middle" x="69" y="-109.8" font-family="Helvetica,sans-Serif" font-size="14.00">windspeed &lt;= 0.36</text>
<text text-anchor="middle" x="69" y="-94.8" font-family="Helvetica,sans-Serif" font-size="14.00">samples = 28.5%</text>
<text text-anchor="middle" x="69" y="-79.8" font-family="Helvetica,sans-Serif" font-size="14.00">value = 4693.408</text>
</g>
<!-- 1&#45;&gt;2 -->
<g id="edge2" class="edge">
<title>1&#45;&gt;2</title>
<path fill="none" stroke="black" d="M175.51,-160.87C158.84,-151.26 139.73,-140.25 122.35,-130.24"/>
<polygon fill="black" stroke="black" points="123.84,-127.06 113.43,-125.1 120.35,-133.12 123.84,-127.06"/>
</g>
<!-- 197 -->
<g id="node6" class="node">
<title>197</title>
<polygon fill="#efb185" stroke="black" points="284,-125 156,-125 156,-72 284,-72 284,-125"/>
<text text-anchor="middle" x="220" y="-109.8" font-family="Helvetica,sans-Serif" font-size="14.00">temp &lt;= 0.265</text>
<text text-anchor="middle" x="220" y="-94.8" font-family="Helvetica,sans-Serif" font-size="14.00">samples = 34.3%</text>
<text text-anchor="middle" x="220" y="-79.8" font-family="Helvetica,sans-Serif" font-size="14.00">value = 5332.109</text>
</g>
<!-- 1&#45;&gt;197 -->
<g id="edge5" class="edge">
<title>1&#45;&gt;197</title>
<path fill="none" stroke="black" d="M220,-160.87C220,-152.89 220,-143.93 220,-135.38"/>
<polygon fill="black" stroke="black" points="223.5,-135.25 220,-125.25 216.5,-135.25 223.5,-135.25"/>
</g>
<!-- 3 -->
<g id="node4" class="node">
<title>3</title>
<polygon fill="#c0c0c0" stroke="black" points="73,-36 19,-36 19,0 73,0 73,-36"/>
<text text-anchor="middle" x="46" y="-14.3" font-family="Helvetica,sans-Serif" font-size="14.00">(...)</text>
</g>
<!-- 2&#45;&gt;3 -->
<g id="edge3" class="edge">
<title>2&#45;&gt;3</title>
<path fill="none" stroke="black" d="M61.47,-71.8C59.05,-63.53 56.36,-54.35 53.91,-46"/>
<polygon fill="black" stroke="black" points="57.25,-44.94 51.08,-36.33 50.53,-46.91 57.25,-44.94"/>
</g>
<!-- 186 -->
<g id="node5" class="node">
<title>186</title>
<polygon fill="#c0c0c0" stroke="black" points="145,-36 91,-36 91,0 145,0 145,-36"/>
<text text-anchor="middle" x="118" y="-14.3" font-family="Helvetica,sans-Serif" font-size="14.00">(...)</text>
</g>
<!-- 2&#45;&gt;186 -->
<g id="edge4" class="edge">
<title>2&#45;&gt;186</title>
<path fill="none" stroke="black" d="M85.04,-71.8C90.43,-63.17 96.44,-53.54 101.83,-44.9"/>
<polygon fill="black" stroke="black" points="104.86,-46.67 107.18,-36.33 98.92,-42.96 104.86,-46.67"/>
</g>
<!-- 198 -->
<g id="node7" class="node">
<title>198</title>
<polygon fill="#c0c0c0" stroke="black" points="232,-36 178,-36 178,0 232,0 232,-36"/>
<text text-anchor="middle" x="205" y="-14.3" font-family="Helvetica,sans-Serif" font-size="14.00">(...)</text>
</g>
<!-- 197&#45;&gt;198 -->
<g id="edge6" class="edge">
<title>197&#45;&gt;198</title>
<path fill="none" stroke="black" d="M215.09,-71.8C213.53,-63.62 211.79,-54.55 210.21,-46.27"/>
<polygon fill="black" stroke="black" points="213.63,-45.5 208.31,-36.33 206.75,-46.81 213.63,-45.5"/>
</g>
<!-- 211 -->
<g id="node8" class="node">
<title>211</title>
<polygon fill="#c0c0c0" stroke="black" points="304,-36 250,-36 250,0 304,0 304,-36"/>
<text text-anchor="middle" x="277" y="-14.3" font-family="Helvetica,sans-Serif" font-size="14.00">(...)</text>
</g>
<!-- 197&#45;&gt;211 -->
<g id="edge7" class="edge">
<title>197&#45;&gt;211</title>
<path fill="none" stroke="black" d="M238.66,-71.8C245,-63.08 252.06,-53.34 258.39,-44.63"/>
<polygon fill="black" stroke="black" points="261.37,-46.48 264.42,-36.33 255.71,-42.37 261.37,-46.48"/>
</g>
<!-- 433 -->
<g id="node10" class="node">
<title>433</title>
<polygon fill="#f4c8a9" stroke="black" points="448,-125 302,-125 302,-72 448,-72 448,-125"/>
<text text-anchor="middle" x="375" y="-109.8" font-family="Helvetica,sans-Serif" font-size="14.00">windspeed &lt;= 0.144</text>
<text text-anchor="middle" x="375" y="-94.8" font-family="Helvetica,sans-Serif" font-size="14.00">samples = 34.9%</text>
<text text-anchor="middle" x="375" y="-79.8" font-family="Helvetica,sans-Serif" font-size="14.00">value = 3886.572</text>
</g>
<!-- 432&#45;&gt;433 -->
<g id="edge9" class="edge">
<title>432&#45;&gt;433</title>
<path fill="none" stroke="black" d="M375,-160.87C375,-152.89 375,-143.93 375,-135.38"/>
<polygon fill="black" stroke="black" points="378.5,-135.25 375,-125.25 371.5,-135.25 378.5,-135.25"/>
</g>
<!-- 672 -->
<g id="node13" class="node">
<title>672</title>
<polygon fill="#fcefe5" stroke="black" points="585.5,-125 466.5,-125 466.5,-72 585.5,-72 585.5,-125"/>
<text text-anchor="middle" x="526" y="-109.8" font-family="Helvetica,sans-Serif" font-size="14.00">weekday &lt;= 0.5</text>
<text text-anchor="middle" x="526" y="-94.8" font-family="Helvetica,sans-Serif" font-size="14.00">samples = 2.3%</text>
<text text-anchor="middle" x="526" y="-79.8" font-family="Helvetica,sans-Serif" font-size="14.00">value = 1473.4</text>
</g>
<!-- 432&#45;&gt;672 -->
<g id="edge12" class="edge">
<title>432&#45;&gt;672</title>
<path fill="none" stroke="black" d="M419.49,-160.87C436.16,-151.26 455.27,-140.25 472.65,-130.24"/>
<polygon fill="black" stroke="black" points="474.65,-133.12 481.57,-125.1 471.16,-127.06 474.65,-133.12"/>
</g>
<!-- 434 -->
<g id="node11" class="node">
<title>434</title>
<polygon fill="#c0c0c0" stroke="black" points="389,-36 335,-36 335,0 389,0 389,-36"/>
<text text-anchor="middle" x="362" y="-14.3" font-family="Helvetica,sans-Serif" font-size="14.00">(...)</text>
</g>
<!-- 433&#45;&gt;434 -->
<g id="edge10" class="edge">
<title>433&#45;&gt;434</title>
<path fill="none" stroke="black" d="M370.74,-71.8C369.39,-63.62 367.89,-54.55 366.52,-46.27"/>
<polygon fill="black" stroke="black" points="369.96,-45.62 364.87,-36.33 363.05,-46.77 369.96,-45.62"/>
</g>
<!-- 507 -->
<g id="node12" class="node">
<title>507</title>
<polygon fill="#c0c0c0" stroke="black" points="461,-36 407,-36 407,0 461,0 461,-36"/>
<text text-anchor="middle" x="434" y="-14.3" font-family="Helvetica,sans-Serif" font-size="14.00">(...)</text>
</g>
<!-- 433&#45;&gt;507 -->
<g id="edge11" class="edge">
<title>433&#45;&gt;507</title>
<path fill="none" stroke="black" d="M394.32,-71.8C400.94,-62.99 408.34,-53.14 414.94,-44.36"/>
<polygon fill="black" stroke="black" points="417.76,-46.43 420.97,-36.33 412.17,-42.22 417.76,-46.43"/>
</g>
<!-- 673 -->
<g id="node14" class="node">
<title>673</title>
<polygon fill="#c0c0c0" stroke="black" points="543,-36 489,-36 489,0 543,0 543,-36"/>
<text text-anchor="middle" x="516" y="-14.3" font-family="Helvetica,sans-Serif" font-size="14.00">(...)</text>
</g>
<!-- 672&#45;&gt;673 -->
<g id="edge13" class="edge">
<title>672&#45;&gt;673</title>
<path fill="none" stroke="black" d="M522.73,-71.8C521.68,-63.62 520.53,-54.55 519.47,-46.27"/>
<polygon fill="black" stroke="black" points="522.94,-45.81 518.21,-36.33 516,-46.69 522.94,-45.81"/>
</g>
<!-- 674 -->
<g id="node15" class="node">
<title>674</title>
<polygon fill="#c0c0c0" stroke="black" points="615,-36 561,-36 561,0 615,0 615,-36"/>
<text text-anchor="middle" x="588" y="-14.3" font-family="Helvetica,sans-Serif" font-size="14.00">(...)</text>
</g>
<!-- 672&#45;&gt;674 -->
<g id="edge14" class="edge">
<title>672&#45;&gt;674</title>
<path fill="none" stroke="black" d="M546.3,-71.8C553.26,-62.99 561.04,-53.14 567.97,-44.36"/>
<polygon fill="black" stroke="black" points="570.86,-46.35 574.31,-36.33 565.37,-42.01 570.86,-46.35"/>
</g>
</g>
</svg>
